<svg xmlns="http://www.w3.org/2000/svg" fill="none" viewBox="0 0 14 24">
  <style>
    path {
      fill: #505050
    }

    @media (prefers-color-scheme:dark) {
      path {
        fill: #e8ea8f
      }
    }
  </style>
  <path
    d="M8.11 5.345c-.238-.358-.75-.546-1.263-.546-.683 0-1.469.324-1.469 1.161s.65 1.178 1.657 1.178v.683c-.12 0-.256 0-.393.017-.94.086-1.69.513-1.69 1.554 0 1.076.82 1.605 1.81 1.605.99 0 1.656-.665 1.656-1.793V7.138h1.503v.683h-.786v1.366c0 1.469-.802 2.51-2.373 2.51-1.606 0-2.63-.99-2.63-2.288 0-1.024.563-1.69 1.503-1.98-.666-.205-1.025-.752-1.025-1.452 0-1.264 1.076-1.861 2.271-1.861.82 0 1.503.256 1.861.734l-.631.495Z" />
  <path
    d="M6.762 11.765c-1.588 0-2.698-.973-2.698-2.356 0-.957.478-1.64 1.366-1.981-.58-.256-.905-.768-.905-1.434 0-1.418 1.264-1.93 2.34-1.93.853 0 1.553.273 1.929.768l.034.052-.734.58-.034-.051c-.205-.307-.683-.512-1.196-.512-.529 0-1.4.239-1.4 1.093 0 .734.53 1.11 1.588 1.11h.069v.802h-.069c-.12 0-.256 0-.392.017-.752.068-1.64.376-1.64 1.486 0 .939.683 1.537 1.742 1.537.973 0 1.588-.666 1.588-1.725V7.069h1.64v.82h-.786v1.298c0 1.605-.905 2.578-2.442 2.578Zm.102-7.581c-1.024 0-2.202.478-2.202 1.792 0 .684.358 1.179.973 1.384l.205.068-.205.051c-.956.308-1.451.973-1.451 1.913 0 1.315 1.058 2.237 2.578 2.237 1.451 0 2.305-.905 2.305-2.442V7.752h.786v-.546H8.487V9.17c0 1.144-.666 1.86-1.725 1.86-1.144 0-1.878-.648-1.878-1.672 0-.94.614-1.52 1.758-1.606.12-.017.222-.017.342-.017V7.19c-1.093-.017-1.656-.444-1.656-1.247 0-.853.768-1.23 1.536-1.23.53 0 1.025.206 1.264.513l.512-.41c-.358-.392-.99-.631-1.776-.631Z" />
  <path fill="#505050" d="M7.377 11.322h-.923v5.925h.923v-5.925Z" />
  <path
    d="M6.967 0c-3.005 0-4.679 1.383-5.55 2.527C.376 3.893 0 5.533 0 6.591c0 2.715 1.093 4.457 2.015 5.448.341.358.7.648 1.007.905.359.29.718.58.769.785.102.564.188 1.383.205 2.22.017.53.239.837.427.99.341.29.768.29.905.273h1.588v-.922H5.242s-.136 0-.222-.05c-.085-.07-.085-.223-.102-.308-.017-.905-.103-1.759-.222-2.374-.103-.53-.564-.888-1.093-1.332-.29-.239-.615-.495-.922-.82-.786-.853-1.759-2.39-1.759-4.798C.922 5.038 2.015.94 6.967.94c4.73 0 5.977 3.689 5.977 5.652 0 1.81-.513 3.313-1.503 4.491-.205.24-.478.478-.752.734-.631.581-1.28 1.179-1.451 1.998-.205 1.042-.137 3.381-.137 3.484v.085c0 .393-.12.564-.375.564l-3.603.017c-.103 0-.666.017-1.042.376-.222.204-.324.495-.324.82 0 .887.853 1.194 1.434 1.194h3.74c.358 0 .358.564 0 .564H4.935a1.162 1.162 0 0 0-1.178 1.212c0 .325.12.598.341.803.359.341.905.375 1.127.375h4.781v-.973H4.952c-.359 0-.359-.563 0-.563h3.86c.238 0 .648-.069.938-.342a1.16 1.16 0 0 0 .342-.837c0-.341-.12-.614-.342-.836-.41-.376-.99-.342-1.16-.342H4.934c-.359 0-.359-.563 0-.563H9.1c.24 0 .427-.103.598-.256.376-.359.325-.974.325-1.366 0-.171-.069-2.357.102-3.262.102-.53.615-.99 1.161-1.486.29-.256.58-.529.82-.82 1.144-1.331 1.742-3.056 1.742-5.088C13.883 4.304 12.43 0 6.966 0Z" />
</svg>